<svg width="377" height="114" viewBox="0 0 377 114" fill="none" xmlns="http://www.w3.org/2000/svg">
<mask id="path-1-outside-1_209_5" maskUnits="userSpaceOnUse" x="0" y="20" width="214" height="72" fill="black">
<rect fill="white" y="20" width="214" height="72"/>
<path d="M17.184 90V32.88H1.632V22.8H43.2V32.88H27.552V90H17.184ZM49.9988 90V37.488H59.8868V90H49.9988ZM54.7988 33.072C53.3268 33.072 52.0148 32.528 50.8628 31.44C49.7748 30.352 49.2308 29.072 49.2308 27.6C49.2308 26.128 49.7748 24.848 50.8628 23.76C52.0148 22.672 53.3268 22.128 54.7988 22.128C56.3348 22.128 57.6468 22.672 58.7348 23.76C59.8228 24.848 60.3668 26.128 60.3668 27.6C60.3668 29.072 59.8228 30.352 58.7348 31.44C57.6468 32.528 56.3348 33.072 54.7988 33.072ZM68.523 53.712C68.523 51.472 68.907 49.36 69.675 47.376C70.443 45.328 71.563 43.536 73.035 42C74.507 40.4 76.267 39.152 78.315 38.256C80.427 37.36 82.763 36.912 85.323 36.912V46.512C84.043 46.512 82.859 46.864 81.771 47.568C80.747 48.208 79.915 49.104 79.275 50.256C78.635 51.408 78.315 52.72 78.315 54.192V90H68.523V53.712ZM96.939 54.192C96.939 52.976 96.683 51.792 96.171 50.64C95.659 49.424 94.859 48.432 93.771 47.664C92.683 46.896 91.403 46.512 89.931 46.512V36.912C92.491 36.912 94.795 37.36 96.843 38.256C98.955 39.152 100.747 40.4 102.219 42C103.691 43.6 104.811 45.424 105.579 47.472C106.347 49.456 106.731 51.536 106.731 53.712V90H96.939V54.192ZM133.286 90.48V81.168C134.374 81.168 135.526 80.944 136.742 80.496C138.022 79.984 139.11 79.248 140.006 78.288C140.902 77.264 141.35 75.984 141.35 74.448C141.35 73.04 140.71 71.888 139.43 70.992C138.15 70.096 136.518 69.36 134.534 68.784C132.614 68.208 130.534 67.664 128.294 67.152C126.054 66.576 123.974 65.968 122.054 65.328C120.774 64.816 119.43 64.048 118.022 63.024C116.614 62 115.398 60.624 114.374 58.896C113.35 57.168 112.838 54.992 112.838 52.368C112.838 49.36 113.382 46.864 114.47 44.88C115.622 42.832 117.03 41.2 118.694 39.984C120.422 38.768 122.182 37.904 123.974 37.392C125.83 36.88 127.462 36.624 128.87 36.624V45.84C127.398 45.84 126.15 46.128 125.126 46.704C124.102 47.28 123.334 48.016 122.822 48.912C122.31 49.808 122.054 50.736 122.054 51.696C122.054 53.104 122.694 54.288 123.974 55.248C125.318 56.208 127.302 57.104 129.926 57.936C132.614 58.704 136.038 59.6 140.198 60.624C141.286 60.816 142.438 61.232 143.654 61.872C144.87 62.512 146.022 63.344 147.11 64.368C148.198 65.392 149.094 66.704 149.798 68.304C150.502 69.84 150.854 71.696 150.854 73.872C150.854 77.328 150.054 80.304 148.454 82.8C146.918 85.296 144.806 87.216 142.118 88.56C139.43 89.84 136.486 90.48 133.286 90.48ZM129.062 90.48C125.286 90.48 122.15 89.744 119.654 88.272C117.222 86.8 115.398 84.944 114.182 82.704C112.966 80.464 112.358 78.256 112.358 76.08L121.574 74.352C121.574 75.696 121.958 76.88 122.726 77.904C123.558 78.864 124.55 79.632 125.702 80.208C126.854 80.784 127.974 81.104 129.062 81.168V90.48ZM140.774 52.848C140.774 50.992 140.262 49.584 139.238 48.624C138.278 47.6 137.158 46.896 135.878 46.512C134.662 46.064 133.734 45.84 133.094 45.84L133.19 36.624C136.518 36.624 139.43 37.392 141.926 38.928C144.422 40.4 146.374 42.256 147.782 44.496C149.19 46.736 149.894 49.008 149.894 51.312L140.774 52.848ZM173.165 90C170.413 90 167.981 89.488 165.869 88.464C163.821 87.44 162.093 86.16 160.685 84.624C159.341 83.088 158.317 81.52 157.613 79.92C156.909 78.256 156.557 76.816 156.557 75.6V51.216C156.557 50 156.909 48.592 157.613 46.992C158.317 45.392 159.373 43.824 160.781 42.288C162.189 40.752 163.917 39.504 165.965 38.544C168.013 37.52 170.381 37.008 173.069 37.008V46.32C171.725 46.32 170.573 46.64 169.613 47.28C168.653 47.92 167.885 48.688 167.309 49.584C166.733 50.48 166.445 51.312 166.445 52.08V57.936H185.261V52.176C185.261 50.832 184.877 49.744 184.109 48.912C183.405 48.016 182.477 47.344 181.325 46.896C180.237 46.448 179.117 46.224 177.965 46.224V37.008C180.525 37.008 183.053 37.616 185.549 38.832C188.109 40.048 190.221 41.712 191.885 43.824C193.613 45.936 194.477 48.368 194.477 51.12V67.44H166.445V75.6C166.445 76.24 166.701 76.976 167.213 77.808C167.725 78.64 168.493 79.376 169.517 80.016C170.541 80.592 171.757 80.88 173.165 80.88V90ZM177.965 90V80.88C179.629 80.88 181.037 80.56 182.189 79.92C183.341 79.28 184.269 78.48 184.973 77.52C185.677 76.56 186.157 75.6 186.413 74.64L194.573 77.712C194.125 79.76 193.133 81.744 191.597 83.664C190.125 85.52 188.237 87.056 185.933 88.272C183.629 89.424 180.973 90 177.965 90ZM202.313 90V21.84H212.873V90H202.313Z"/>
</mask>
<path d="M17.184 90V32.88H1.632V22.8H43.2V32.88H27.552V90H17.184ZM49.9988 90V37.488H59.8868V90H49.9988ZM54.7988 33.072C53.3268 33.072 52.0148 32.528 50.8628 31.44C49.7748 30.352 49.2308 29.072 49.2308 27.6C49.2308 26.128 49.7748 24.848 50.8628 23.76C52.0148 22.672 53.3268 22.128 54.7988 22.128C56.3348 22.128 57.6468 22.672 58.7348 23.76C59.8228 24.848 60.3668 26.128 60.3668 27.6C60.3668 29.072 59.8228 30.352 58.7348 31.44C57.6468 32.528 56.3348 33.072 54.7988 33.072ZM68.523 53.712C68.523 51.472 68.907 49.36 69.675 47.376C70.443 45.328 71.563 43.536 73.035 42C74.507 40.4 76.267 39.152 78.315 38.256C80.427 37.36 82.763 36.912 85.323 36.912V46.512C84.043 46.512 82.859 46.864 81.771 47.568C80.747 48.208 79.915 49.104 79.275 50.256C78.635 51.408 78.315 52.72 78.315 54.192V90H68.523V53.712ZM96.939 54.192C96.939 52.976 96.683 51.792 96.171 50.64C95.659 49.424 94.859 48.432 93.771 47.664C92.683 46.896 91.403 46.512 89.931 46.512V36.912C92.491 36.912 94.795 37.36 96.843 38.256C98.955 39.152 100.747 40.4 102.219 42C103.691 43.6 104.811 45.424 105.579 47.472C106.347 49.456 106.731 51.536 106.731 53.712V90H96.939V54.192ZM133.286 90.48V81.168C134.374 81.168 135.526 80.944 136.742 80.496C138.022 79.984 139.11 79.248 140.006 78.288C140.902 77.264 141.35 75.984 141.35 74.448C141.35 73.04 140.71 71.888 139.43 70.992C138.15 70.096 136.518 69.36 134.534 68.784C132.614 68.208 130.534 67.664 128.294 67.152C126.054 66.576 123.974 65.968 122.054 65.328C120.774 64.816 119.43 64.048 118.022 63.024C116.614 62 115.398 60.624 114.374 58.896C113.35 57.168 112.838 54.992 112.838 52.368C112.838 49.36 113.382 46.864 114.47 44.88C115.622 42.832 117.03 41.2 118.694 39.984C120.422 38.768 122.182 37.904 123.974 37.392C125.83 36.88 127.462 36.624 128.87 36.624V45.84C127.398 45.84 126.15 46.128 125.126 46.704C124.102 47.28 123.334 48.016 122.822 48.912C122.31 49.808 122.054 50.736 122.054 51.696C122.054 53.104 122.694 54.288 123.974 55.248C125.318 56.208 127.302 57.104 129.926 57.936C132.614 58.704 136.038 59.6 140.198 60.624C141.286 60.816 142.438 61.232 143.654 61.872C144.87 62.512 146.022 63.344 147.11 64.368C148.198 65.392 149.094 66.704 149.798 68.304C150.502 69.84 150.854 71.696 150.854 73.872C150.854 77.328 150.054 80.304 148.454 82.8C146.918 85.296 144.806 87.216 142.118 88.56C139.43 89.84 136.486 90.48 133.286 90.48ZM129.062 90.48C125.286 90.48 122.15 89.744 119.654 88.272C117.222 86.8 115.398 84.944 114.182 82.704C112.966 80.464 112.358 78.256 112.358 76.08L121.574 74.352C121.574 75.696 121.958 76.88 122.726 77.904C123.558 78.864 124.55 79.632 125.702 80.208C126.854 80.784 127.974 81.104 129.062 81.168V90.48ZM140.774 52.848C140.774 50.992 140.262 49.584 139.238 48.624C138.278 47.6 137.158 46.896 135.878 46.512C134.662 46.064 133.734 45.84 133.094 45.84L133.19 36.624C136.518 36.624 139.43 37.392 141.926 38.928C144.422 40.4 146.374 42.256 147.782 44.496C149.19 46.736 149.894 49.008 149.894 51.312L140.774 52.848ZM173.165 90C170.413 90 167.981 89.488 165.869 88.464C163.821 87.44 162.093 86.16 160.685 84.624C159.341 83.088 158.317 81.52 157.613 79.92C156.909 78.256 156.557 76.816 156.557 75.6V51.216C156.557 50 156.909 48.592 157.613 46.992C158.317 45.392 159.373 43.824 160.781 42.288C162.189 40.752 163.917 39.504 165.965 38.544C168.013 37.52 170.381 37.008 173.069 37.008V46.32C171.725 46.32 170.573 46.64 169.613 47.28C168.653 47.92 167.885 48.688 167.309 49.584C166.733 50.48 166.445 51.312 166.445 52.08V57.936H185.261V52.176C185.261 50.832 184.877 49.744 184.109 48.912C183.405 48.016 182.477 47.344 181.325 46.896C180.237 46.448 179.117 46.224 177.965 46.224V37.008C180.525 37.008 183.053 37.616 185.549 38.832C188.109 40.048 190.221 41.712 191.885 43.824C193.613 45.936 194.477 48.368 194.477 51.12V67.44H166.445V75.6C166.445 76.24 166.701 76.976 167.213 77.808C167.725 78.64 168.493 79.376 169.517 80.016C170.541 80.592 171.757 80.88 173.165 80.88V90ZM177.965 90V80.88C179.629 80.88 181.037 80.56 182.189 79.92C183.341 79.28 184.269 78.48 184.973 77.52C185.677 76.56 186.157 75.6 186.413 74.64L194.573 77.712C194.125 79.76 193.133 81.744 191.597 83.664C190.125 85.52 188.237 87.056 185.933 88.272C183.629 89.424 180.973 90 177.965 90ZM202.313 90V21.84H212.873V90H202.313Z" fill="black"/>
<path d="M17.184 90H16.184V91H17.184V90ZM17.184 32.88H18.184V31.88H17.184V32.88ZM1.632 32.88H0.632V33.88H1.632V32.88ZM1.632 22.8V21.8H0.632V22.8H1.632ZM43.2 22.8H44.2V21.8H43.2V22.8ZM43.2 32.88V33.88H44.2V32.88H43.2ZM27.552 32.88V31.88H26.552V32.88H27.552ZM27.552 90V91H28.552V90H27.552ZM18.184 90V32.88H16.184V90H18.184ZM17.184 31.88H1.632V33.88H17.184V31.88ZM2.632 32.88V22.8H0.632V32.88H2.632ZM1.632 23.8H43.2V21.8H1.632V23.8ZM42.2 22.8V32.88H44.2V22.8H42.2ZM43.2 31.88H27.552V33.88H43.2V31.88ZM26.552 32.88V90H28.552V32.88H26.552ZM27.552 89H17.184V91H27.552V89ZM49.9988 90H48.9988V91H49.9988V90ZM49.9988 37.488V36.488H48.9988V37.488H49.9988ZM59.8868 37.488H60.8868V36.488H59.8868V37.488ZM59.8868 90V91H60.8868V90H59.8868ZM50.8628 31.44L50.1556 32.1471L50.1657 32.1572L50.1761 32.167L50.8628 31.44ZM50.8628 23.76L50.1761 23.033L50.1657 23.0428L50.1556 23.0529L50.8628 23.76ZM58.7348 23.76L59.4419 23.0529L59.4419 23.0529L58.7348 23.76ZM58.7348 31.44L59.4419 32.1471L59.4419 32.1471L58.7348 31.44ZM50.9988 90V37.488H48.9988V90H50.9988ZM49.9988 38.488H59.8868V36.488H49.9988V38.488ZM58.8868 37.488V90H60.8868V37.488H58.8868ZM59.8868 89H49.9988V91H59.8868V89ZM54.7988 32.072C53.6027 32.072 52.5313 31.6404 51.5494 30.713L50.1761 32.167C51.4982 33.4156 53.0508 34.072 54.7988 34.072V32.072ZM51.5699 30.7329C50.6599 29.823 50.2308 28.7937 50.2308 27.6H48.2308C48.2308 29.3503 48.8896 30.881 50.1556 32.1471L51.5699 30.7329ZM50.2308 27.6C50.2308 26.4063 50.6599 25.377 51.5699 24.4671L50.1556 23.0529C48.8896 24.319 48.2308 25.8497 48.2308 27.6H50.2308ZM51.5494 24.487C52.5313 23.5596 53.6027 23.128 54.7988 23.128V21.128C53.0508 21.128 51.4982 21.7844 50.1761 23.033L51.5494 24.487ZM54.7988 23.128C56.069 23.128 57.1268 23.5663 58.0276 24.4671L59.4419 23.0529C58.1667 21.7777 56.6005 21.128 54.7988 21.128V23.128ZM58.0276 24.4671C58.9376 25.377 59.3668 26.4063 59.3668 27.6H61.3668C61.3668 25.8497 60.7079 24.319 59.4419 23.0529L58.0276 24.4671ZM59.3668 27.6C59.3668 28.7937 58.9376 29.823 58.0276 30.7329L59.4419 32.1471C60.7079 30.881 61.3668 29.3503 61.3668 27.6H59.3668ZM58.0276 30.7329C57.1268 31.6337 56.069 32.072 54.7988 32.072V34.072C56.6005 34.072 58.1667 33.4223 59.4419 32.1471L58.0276 30.7329ZM69.675 47.376L70.6076 47.737L70.6113 47.7271L69.675 47.376ZM73.035 42L73.757 42.6919L73.764 42.6846L73.7709 42.6771L73.035 42ZM78.315 38.256L77.9244 37.3354L77.9142 37.3398L78.315 38.256ZM85.323 36.912H86.323V35.912H85.323V36.912ZM85.323 46.512V47.512H86.323V46.512H85.323ZM81.771 47.568L82.301 48.416L82.3077 48.4118L82.3143 48.4076L81.771 47.568ZM79.275 50.256L78.4008 49.7704L78.4008 49.7704L79.275 50.256ZM78.315 90V91H79.315V90H78.315ZM68.523 90H67.523V91H68.523V90ZM96.171 50.64L95.2494 51.0281L95.2532 51.0371L95.2572 51.0461L96.171 50.64ZM93.771 47.664L94.3477 46.847L94.3477 46.847L93.771 47.664ZM89.931 46.512H88.931V47.512H89.931V46.512ZM89.931 36.912V35.912H88.931V36.912H89.931ZM96.843 38.256L96.4422 39.1722L96.4525 39.1766L96.843 38.256ZM102.219 42L101.483 42.6771L101.483 42.6771L102.219 42ZM105.579 47.472L104.643 47.8231L104.646 47.833L105.579 47.472ZM106.731 90V91H107.731V90H106.731ZM96.939 90H95.939V91H96.939V90ZM69.523 53.712C69.523 51.5888 69.8865 49.5998 70.6076 47.737L68.7424 47.015C67.9275 49.1202 67.523 51.3551 67.523 53.712H69.523ZM70.6113 47.7271C71.3331 45.8024 72.3815 44.1272 73.757 42.6919L72.313 41.3081C70.7445 42.9448 69.5529 44.8536 68.7387 47.0249L70.6113 47.7271ZM73.7709 42.6771C75.1463 41.182 76.7912 40.0142 78.7158 39.1722L77.9142 37.3398C75.7428 38.2898 73.8677 39.618 72.2991 41.3229L73.7709 42.6771ZM78.7055 39.1766C80.6805 38.3387 82.8816 37.912 85.323 37.912V35.912C82.6444 35.912 80.1736 36.3813 77.9245 37.3354L78.7055 39.1766ZM84.323 36.912V46.512H86.323V36.912H84.323ZM85.323 45.512C83.8477 45.512 82.4755 45.9211 81.2278 46.7284L82.3143 48.4076C83.2425 47.8069 84.2383 47.512 85.323 47.512V45.512ZM81.241 46.72C80.0606 47.4578 79.1153 48.4843 78.4008 49.7704L80.1492 50.7416C80.7147 49.7237 81.4334 48.9582 82.301 48.416L81.241 46.72ZM78.4008 49.7704C77.669 51.0877 77.315 52.5703 77.315 54.192H79.315C79.315 52.8697 79.601 51.7283 80.1492 50.7416L78.4008 49.7704ZM77.315 54.192V90H79.315V54.192H77.315ZM78.315 89H68.523V91H78.315V89ZM69.523 90V53.712H67.523V90H69.523ZM97.939 54.192C97.939 52.8309 97.6515 51.5089 97.0848 50.2339L95.2572 51.0461C95.7145 52.0751 95.939 53.1211 95.939 54.192H97.939ZM97.0926 50.2519C96.5073 48.8618 95.587 47.7218 94.3477 46.847L93.1943 48.481C94.131 49.1421 94.8107 49.9862 95.2494 51.0281L97.0926 50.2519ZM94.3477 46.847C93.0733 45.9475 91.5868 45.512 89.931 45.512V47.512C91.2192 47.512 92.2927 47.8445 93.1943 48.481L94.3477 46.847ZM90.931 46.512V36.912H88.931V46.512H90.931ZM89.931 37.912C92.373 37.912 94.5376 38.3389 96.4422 39.1722L97.2438 37.3398C95.0524 36.3811 92.609 35.912 89.931 35.912V37.912ZM96.4525 39.1766C98.4407 40.0201 100.113 41.1877 101.483 42.6771L102.955 41.3229C101.381 39.6123 99.4693 38.2839 97.2336 37.3354L96.4525 39.1766ZM101.483 42.6771C102.867 44.1817 103.92 45.8949 104.643 47.8231L106.515 47.1209C105.702 44.9531 104.515 43.0183 102.955 41.3229L101.483 42.6771ZM104.646 47.833C105.369 49.6992 105.731 51.6566 105.731 53.712H107.731C107.731 51.4154 107.325 49.2128 106.512 47.111L104.646 47.833ZM105.731 53.712V90H107.731V53.712H105.731ZM106.731 89H96.939V91H106.731V89ZM97.939 90V54.192H95.939V90H97.939ZM133.286 90.48H132.286V91.48H133.286V90.48ZM133.286 81.168V80.168H132.286V81.168H133.286ZM136.742 80.496L137.087 81.4343L137.1 81.4296L137.113 81.4245L136.742 80.496ZM140.006 78.288L140.737 78.9703L140.748 78.9586L140.758 78.9465L140.006 78.288ZM134.534 68.784L134.246 69.7419L134.255 69.7443L134.534 68.784ZM128.294 67.152L128.044 68.1205L128.058 68.1239L128.071 68.1269L128.294 67.152ZM122.054 65.328L121.682 66.2565L121.709 66.2674L121.737 66.2767L122.054 65.328ZM114.374 58.896L113.513 59.4058L113.513 59.4058L114.374 58.896ZM114.47 44.88L113.598 44.3897L113.593 44.3992L114.47 44.88ZM118.694 39.984L118.118 39.1662L118.111 39.1713L118.103 39.1766L118.694 39.984ZM123.974 37.392L123.708 36.428L123.699 36.4305L123.974 37.392ZM128.87 36.624H129.87V35.624H128.87V36.624ZM128.87 45.84V46.84H129.87V45.84H128.87ZM125.126 46.704L124.635 45.8324L124.635 45.8324L125.126 46.704ZM123.974 55.248L123.374 56.048L123.383 56.055L123.392 56.0617L123.974 55.248ZM129.926 57.936L129.623 58.8892L129.637 58.8936L129.651 58.8975L129.926 57.936ZM140.198 60.624L139.958 61.595L139.991 61.603L140.024 61.6088L140.198 60.624ZM147.11 64.368L147.795 63.6398L147.795 63.6398L147.11 64.368ZM149.798 68.304L148.882 68.7067L148.885 68.7137L148.888 68.7207L149.798 68.304ZM148.454 82.8L147.612 82.2603L147.607 82.2681L147.602 82.2759L148.454 82.8ZM142.118 88.56L142.547 89.4629L142.556 89.4587L142.565 89.4544L142.118 88.56ZM129.062 90.48V91.48H130.062V90.48H129.062ZM119.654 88.272L119.136 89.1276L119.146 89.1334L119.654 88.272ZM114.182 82.704L113.303 83.1811L113.303 83.1811L114.182 82.704ZM112.358 76.08L112.173 75.0971L111.358 75.2501V76.08H112.358ZM121.574 74.352H122.574V73.1471L121.389 73.3691L121.574 74.352ZM122.726 77.904L121.926 78.504L121.947 78.5322L121.97 78.5589L122.726 77.904ZM125.702 80.208L126.149 79.3136L126.149 79.3136L125.702 80.208ZM129.062 81.168H130.062V80.2251L129.12 80.1697L129.062 81.168ZM140.774 52.848H139.774V54.0305L140.94 53.8341L140.774 52.848ZM139.238 48.624L138.508 49.3079L138.53 49.3315L138.554 49.3535L139.238 48.624ZM135.878 46.512L135.532 47.4503L135.561 47.461L135.59 47.4698L135.878 46.512ZM133.094 45.84L132.094 45.8296L132.083 46.84H133.094V45.84ZM133.19 36.624V35.624H132.2L132.19 36.6136L133.19 36.624ZM141.926 38.928L141.401 39.7797L141.409 39.7846L141.418 39.7894L141.926 38.928ZM147.782 44.496L148.628 43.9638L148.628 43.9638L147.782 44.496ZM149.894 51.312L150.06 52.2981L150.894 52.1577V51.312H149.894ZM134.286 90.48V81.168H132.286V90.48H134.286ZM133.286 82.168C134.512 82.168 135.781 81.9155 137.087 81.4343L136.396 79.5577C135.27 79.9725 134.235 80.168 133.286 80.168V82.168ZM137.113 81.4245C138.522 80.8607 139.735 80.0432 140.737 78.9703L139.274 77.6057C138.484 78.4528 137.521 79.1073 136.37 79.5675L137.113 81.4245ZM140.758 78.9465C141.834 77.7166 142.35 76.1929 142.35 74.448H140.35C140.35 75.7751 139.969 76.8114 139.253 77.6295L140.758 78.9465ZM142.35 74.448C142.35 72.6741 141.516 71.232 140.003 70.1728L138.856 71.8112C139.903 72.544 140.35 73.4059 140.35 74.448H142.35ZM140.003 70.1728C138.609 69.1973 136.87 68.421 134.812 67.8237L134.255 69.7443C136.165 70.299 137.69 70.9947 138.856 71.8112L140.003 70.1728ZM134.821 67.8262C132.877 67.2429 130.775 66.6934 128.516 66.1771L128.071 68.1269C130.292 68.6346 132.35 69.1731 134.246 69.7418L134.821 67.8262ZM128.543 66.1835C126.322 65.6125 124.265 65.011 122.37 64.3793L121.737 66.2767C123.682 66.925 125.785 67.5395 128.044 68.1205L128.543 66.1835ZM122.425 64.3995C121.239 63.9251 119.967 63.2026 118.61 62.2153L117.433 63.8327C118.892 64.8934 120.308 65.7069 121.682 66.2565L122.425 64.3995ZM118.61 62.2153C117.327 61.2827 116.199 60.0149 115.234 58.3862L113.513 59.4058C114.596 61.2331 115.9 62.7173 117.433 63.8327L118.61 62.2153ZM115.234 58.3862C114.325 56.8529 113.838 54.8662 113.838 52.368H111.838C111.838 55.1178 112.374 57.4831 113.513 59.4058L115.234 58.3862ZM113.838 52.368C113.838 49.4747 114.361 47.1569 115.346 45.3608L113.593 44.3992C112.402 46.5711 111.838 49.2453 111.838 52.368H113.838ZM115.341 45.3703C116.433 43.4294 117.75 41.912 119.284 40.7914L118.103 39.1766C116.309 40.488 114.81 42.2346 113.598 44.3897L115.341 45.3703ZM119.269 40.8018C120.918 39.6417 122.577 38.831 124.248 38.3535L123.699 36.4305C121.786 36.977 119.925 37.8943 118.118 39.1662L119.269 40.8018ZM124.239 38.356C126.038 37.8598 127.577 37.624 128.87 37.624V35.624C127.346 35.624 125.621 35.9002 123.708 36.428L124.239 38.356ZM127.87 36.624V45.84H129.87V36.624H127.87ZM128.87 44.84C127.269 44.84 125.842 45.1535 124.635 45.8324L125.616 47.5756C126.457 47.1025 127.526 46.84 128.87 46.84V44.84ZM124.635 45.8324C123.476 46.4846 122.567 47.342 121.953 48.4159L123.69 49.4081C124.1 48.69 124.727 48.0754 125.616 47.5756L124.635 45.8324ZM121.953 48.4159C121.362 49.4513 121.054 50.549 121.054 51.696H123.054C123.054 50.923 123.257 50.1647 123.69 49.4081L121.953 48.4159ZM121.054 51.696C121.054 53.4648 121.881 54.9286 123.374 56.048L124.573 54.448C123.506 53.6474 123.054 52.7432 123.054 51.696H121.054ZM123.392 56.0617C124.859 57.1096 126.957 58.0437 129.623 58.8892L130.228 56.9828C127.646 56.1643 125.776 55.3064 124.555 54.4343L123.392 56.0617ZM129.651 58.8975C132.355 59.6702 135.792 60.5694 139.958 61.595L140.437 59.653C136.283 58.6306 132.872 57.7378 130.2 56.9745L129.651 58.8975ZM140.024 61.6088C140.988 61.779 142.042 62.1539 143.188 62.7569L144.119 60.9871C142.833 60.3101 141.583 59.853 140.371 59.6392L140.024 61.6088ZM143.188 62.7569C144.317 63.3513 145.396 64.1288 146.424 65.0962L147.795 63.6398C146.647 62.5592 145.422 61.6727 144.119 60.9871L143.188 62.7569ZM146.424 65.0962C147.399 66.014 148.223 67.2089 148.882 68.7067L150.713 67.9013C149.964 66.1991 148.996 64.77 147.795 63.6398L146.424 65.0962ZM148.888 68.7207C149.518 70.094 149.854 71.8 149.854 73.872H151.854C151.854 71.592 151.485 69.586 150.707 67.8873L148.888 68.7207ZM149.854 73.872C149.854 77.169 149.092 79.9506 147.612 82.2603L149.295 83.3397C151.015 80.6574 151.854 77.487 151.854 73.872H149.854ZM147.602 82.2759C146.166 84.609 144.196 86.4027 141.67 87.6656L142.565 89.4544C145.415 88.0293 147.669 85.983 149.305 83.3241L147.602 82.2759ZM141.688 87.6571C139.144 88.8685 136.348 89.48 133.286 89.48V91.48C136.623 91.48 139.715 90.8115 142.547 89.4629L141.688 87.6571ZM129.062 89.48C125.411 89.48 122.464 88.7683 120.161 87.4106L119.146 89.1334C121.835 90.7197 125.16 91.48 129.062 91.48V89.48ZM120.171 87.4165C117.873 86.0255 116.182 84.2935 115.06 82.2269L113.303 83.1811C114.613 85.5945 116.57 87.5745 119.136 89.1275L120.171 87.4165ZM115.06 82.2269C113.91 80.1082 113.358 78.0629 113.358 76.08H111.358C111.358 78.4491 112.021 80.8198 113.303 83.1811L115.06 82.2269ZM112.542 77.0629L121.758 75.3349L121.389 73.3691L112.173 75.0971L112.542 77.0629ZM120.574 74.352C120.574 75.9008 121.021 77.2979 121.926 78.504L123.526 77.304C122.894 76.4621 122.574 75.4912 122.574 74.352H120.574ZM121.97 78.5589C122.889 79.6197 123.986 80.4685 125.254 81.1024L126.149 79.3136C125.113 78.7955 124.226 78.1083 123.481 77.2491L121.97 78.5589ZM125.254 81.1024C126.506 81.7282 127.757 82.093 129.003 82.1663L129.12 80.1697C128.19 80.115 127.201 79.8398 126.149 79.3136L125.254 81.1024ZM128.062 81.168V90.48H130.062V81.168H128.062ZM141.774 52.848C141.774 50.8088 141.206 49.099 139.921 47.8945L138.554 49.3535C139.317 50.069 139.774 51.1752 139.774 52.848H141.774ZM139.967 47.9401C138.893 46.7941 137.622 45.9915 136.165 45.5542L135.59 47.4698C136.693 47.8005 137.662 48.4059 138.508 49.3079L139.967 47.9401ZM136.223 45.5737C134.986 45.1179 133.919 44.84 133.094 44.84V46.84C133.548 46.84 134.337 47.0101 135.532 47.4503L136.223 45.5737ZM134.093 45.8504L134.189 36.6344L132.19 36.6136L132.094 45.8296L134.093 45.8504ZM133.19 37.624C136.358 37.624 139.084 38.3533 141.401 39.7797L142.45 38.0763C139.775 36.4307 136.677 35.624 133.19 35.624V37.624ZM141.418 39.7894C143.789 41.1881 145.62 42.9359 146.935 45.0282L148.628 43.9638C147.127 41.5761 145.054 39.6119 142.433 38.0666L141.418 39.7894ZM146.935 45.0282C148.258 47.1329 148.894 49.2229 148.894 51.312H150.894C150.894 48.7931 150.121 46.3391 148.628 43.9638L146.935 45.0282ZM149.727 50.3259L140.607 51.8619L140.94 53.8341L150.06 52.2981L149.727 50.3259ZM173.165 90V91H174.165V90H173.165ZM165.869 88.464L165.421 89.3585L165.432 89.3638L165.869 88.464ZM160.685 84.624L159.932 85.2825L159.94 85.2912L159.947 85.2997L160.685 84.624ZM157.613 79.92L156.692 80.3096L156.694 80.3162L156.697 80.3227L157.613 79.92ZM157.613 46.992L156.697 46.5893L156.697 46.5893L157.613 46.992ZM160.781 42.288L161.518 42.9637L161.518 42.9637L160.781 42.288ZM165.965 38.544L166.389 39.4495L166.4 39.4441L166.412 39.4384L165.965 38.544ZM173.069 37.008H174.069V36.008H173.069V37.008ZM173.069 46.32V47.32H174.069V46.32H173.069ZM167.309 49.584L166.467 49.0432L166.467 49.0432L167.309 49.584ZM166.445 57.936H165.445V58.936H166.445V57.936ZM185.261 57.936V58.936H186.261V57.936H185.261ZM184.109 48.912L183.322 49.5298L183.347 49.5611L183.374 49.5903L184.109 48.912ZM181.325 46.896L180.944 47.8207L180.953 47.8244L180.962 47.828L181.325 46.896ZM177.965 46.224H176.965V47.224H177.965V46.224ZM177.965 37.008V36.008H176.965V37.008H177.965ZM185.549 38.832L185.111 39.731L185.119 39.7353L185.549 38.832ZM191.885 43.824L191.099 44.4429L191.105 44.4501L191.111 44.4572L191.885 43.824ZM194.477 67.44V68.44H195.477V67.44H194.477ZM166.445 67.44V66.44H165.445V67.44H166.445ZM169.517 80.016L168.987 80.864L169.006 80.8762L169.026 80.8876L169.517 80.016ZM173.165 80.88H174.165V79.88H173.165V80.88ZM177.965 90H176.965V91H177.965V90ZM177.965 80.88V79.88H176.965V80.88H177.965ZM182.189 79.92L182.674 80.7942L182.674 80.7942L182.189 79.92ZM184.973 77.52L184.166 76.9286L184.166 76.9286L184.973 77.52ZM186.413 74.64L186.765 73.7041L185.731 73.3149L185.446 74.3823L186.413 74.64ZM194.573 77.712L195.549 77.9257L195.734 77.0808L194.925 76.7761L194.573 77.712ZM191.597 83.664L190.816 83.0393L190.813 83.0426L191.597 83.664ZM185.933 88.272L186.38 89.1664L186.39 89.1615L186.399 89.1564L185.933 88.272ZM173.165 89C170.538 89 168.259 88.5118 166.305 87.5642L165.432 89.3638C167.702 90.4642 170.287 91 173.165 91V89ZM166.316 87.5696C164.366 86.5948 162.739 85.3858 161.422 83.9483L159.947 85.2997C161.446 86.9342 163.275 88.2852 165.421 89.3584L166.316 87.5696ZM161.437 83.9655C160.149 82.4935 159.185 81.0102 158.528 79.5173L156.697 80.3227C157.448 82.0298 158.532 83.6825 159.932 85.2825L161.437 83.9655ZM158.533 79.5304C157.859 77.9352 157.557 76.6335 157.557 75.6H155.557C155.557 76.9985 155.958 78.5768 156.692 80.3096L158.533 79.5304ZM157.557 75.6V51.216H155.557V75.6H157.557ZM157.557 51.216C157.557 50.1854 157.857 48.9191 158.528 47.3947L156.697 46.5893C155.96 48.2649 155.557 49.8146 155.557 51.216H157.557ZM158.528 47.3947C159.18 45.912 160.17 44.4341 161.518 42.9637L160.043 41.6123C158.575 43.2139 157.453 44.872 156.697 46.5893L158.528 47.3947ZM161.518 42.9637C162.83 41.5319 164.449 40.3588 166.389 39.4495L165.54 37.6385C163.384 38.6492 161.547 39.9721 160.043 41.6123L161.518 42.9637ZM166.412 39.4384C168.299 38.495 170.509 38.008 173.069 38.008V36.008C170.252 36.008 167.726 36.545 165.517 37.6496L166.412 39.4384ZM172.069 37.008V46.32H174.069V37.008H172.069ZM173.069 45.32C171.56 45.32 170.208 45.6813 169.058 46.4479L170.167 48.112C170.937 47.5987 171.889 47.32 173.069 47.32V45.32ZM169.058 46.4479C167.993 47.1579 167.124 48.0221 166.467 49.0432L168.15 50.1248C168.645 49.3539 169.312 48.6821 170.167 48.112L169.058 46.4479ZM166.467 49.0432C165.826 50.0404 165.445 51.0595 165.445 52.08H167.445C167.445 51.5645 167.639 50.9196 168.15 50.1248L166.467 49.0432ZM165.445 52.08V57.936H167.445V52.08H165.445ZM166.445 58.936H185.261V56.936H166.445V58.936ZM186.261 57.936V52.176H184.261V57.936H186.261ZM186.261 52.176C186.261 50.6305 185.813 49.2841 184.843 48.2337L183.374 49.5903C183.94 50.2039 184.261 51.0335 184.261 52.176H186.261ZM184.895 48.2942C184.071 47.2456 182.991 46.4712 181.687 45.964L180.962 47.828C181.962 48.2168 182.738 48.7864 183.322 49.5298L184.895 48.2942ZM181.705 45.9713C180.499 45.4747 179.25 45.224 177.965 45.224V47.224C178.983 47.224 179.974 47.4213 180.944 47.8207L181.705 45.9713ZM178.965 46.224V37.008H176.965V46.224H178.965ZM177.965 38.008C180.36 38.008 182.739 38.5757 185.111 39.731L185.986 37.933C183.366 36.6563 180.689 36.008 177.965 36.008V38.008ZM185.119 39.7353C187.548 40.8889 189.535 42.4584 191.099 44.4429L192.67 43.2051C190.906 40.9656 188.669 39.2071 185.978 37.9287L185.119 39.7353ZM191.111 44.4572C192.691 46.3889 193.477 48.5967 193.477 51.12H195.477C195.477 48.1393 194.534 45.4831 192.658 43.1908L191.111 44.4572ZM193.477 51.12V67.44H195.477V51.12H193.477ZM194.477 66.44H166.445V68.44H194.477V66.44ZM165.445 67.44V75.6H167.445V67.44H165.445ZM165.445 75.6C165.445 76.4982 165.799 77.4192 166.361 78.3321L168.064 77.2839C167.602 76.5328 167.445 75.9818 167.445 75.6H165.445ZM166.361 78.3321C166.97 79.3228 167.862 80.1612 168.987 80.864L170.047 79.168C169.123 78.5908 168.479 77.9572 168.064 77.2839L166.361 78.3321ZM169.026 80.8876C170.227 81.563 171.619 81.88 173.165 81.88V79.88C171.894 79.88 170.854 79.621 170.007 79.1444L169.026 80.8876ZM172.165 80.88V90H174.165V80.88H172.165ZM178.965 90V80.88H176.965V90H178.965ZM177.965 81.88C179.755 81.88 181.339 81.5356 182.674 80.7942L181.703 79.0458C180.734 79.5844 179.502 79.88 177.965 79.88V81.88ZM182.674 80.7942C183.939 80.0917 184.981 79.1996 185.779 78.1114L184.166 76.9286C183.556 77.7604 182.742 78.4683 181.703 79.0458L182.674 80.7942ZM185.779 78.1114C186.542 77.0704 187.085 75.9991 187.379 74.8977L185.446 74.3823C185.228 75.2009 184.811 76.0496 184.166 76.9286L185.779 78.1114ZM186.06 75.5759L194.22 78.6479L194.925 76.7761L186.765 73.7041L186.06 75.5759ZM193.596 77.4983C193.186 79.3722 192.272 81.2187 190.816 83.0393L192.377 84.2887C193.993 82.2693 195.063 80.1478 195.549 77.9257L193.596 77.4983ZM190.813 83.0426C189.435 84.7795 187.659 86.2299 185.466 87.3876L186.399 89.1564C188.814 87.8821 190.814 86.2605 192.38 84.2854L190.813 83.0426ZM185.485 87.3776C183.342 88.4494 180.843 89 177.965 89V91C181.102 91 183.915 90.3986 186.38 89.1664L185.485 87.3776ZM202.313 90H201.313V91H202.313V90ZM202.313 21.84V20.84H201.313V21.84H202.313ZM212.873 21.84H213.873V20.84H212.873V21.84ZM212.873 90V91H213.873V90H212.873ZM203.313 90V21.84H201.313V90H203.313ZM202.313 22.84H212.873V20.84H202.313V22.84ZM211.873 21.84V90H213.873V21.84H211.873ZM212.873 89H202.313V91H212.873V89Z" fill="black" mask="url(#path-1-outside-1_209_5)"/>
<mask id="path-3-outside-2_209_5" maskUnits="userSpaceOnUse" x="219" y="20" width="152" height="71" fill="black">
<rect fill="white" x="219" y="20" width="152" height="71"/>
<path d="M220.936 90V22.8H231.304V79.824H257.032V90H220.936ZM263.905 90V37.488H273.793V90H263.905ZM268.705 33.072C267.233 33.072 265.921 32.528 264.769 31.44C263.681 30.352 263.137 29.072 263.137 27.6C263.137 26.128 263.681 24.848 264.769 23.76C265.921 22.672 267.233 22.128 268.705 22.128C270.241 22.128 271.553 22.672 272.641 23.76C273.729 24.848 274.273 26.128 274.273 27.6C274.273 29.072 273.729 30.352 272.641 31.44C271.553 32.528 270.241 33.072 268.705 33.072ZM282.429 53.712C282.429 51.472 282.813 49.36 283.581 47.376C284.349 45.328 285.469 43.536 286.941 42C288.413 40.4 290.173 39.152 292.221 38.256C294.333 37.36 296.669 36.912 299.229 36.912V46.512C297.949 46.512 296.765 46.864 295.677 47.568C294.653 48.208 293.821 49.104 293.181 50.256C292.541 51.408 292.221 52.72 292.221 54.192V90H282.429V53.712ZM310.845 54.192C310.845 52.976 310.589 51.792 310.077 50.64C309.565 49.424 308.765 48.432 307.677 47.664C306.589 46.896 305.309 46.512 303.837 46.512V36.912C306.397 36.912 308.701 37.36 310.749 38.256C312.861 39.152 314.653 40.4 316.125 42C317.597 43.6 318.717 45.424 319.485 47.472C320.253 49.456 320.637 51.536 320.637 53.712V90H310.845V54.192ZM357.848 90L341.048 63.408L357.656 37.008H368.984L352.088 63.408L369.08 90H357.848ZM328.28 90V21.84H338.456V90H328.28Z"/>
</mask>
<path d="M220.936 90V22.8H231.304V79.824H257.032V90H220.936ZM263.905 90V37.488H273.793V90H263.905ZM268.705 33.072C267.233 33.072 265.921 32.528 264.769 31.44C263.681 30.352 263.137 29.072 263.137 27.6C263.137 26.128 263.681 24.848 264.769 23.76C265.921 22.672 267.233 22.128 268.705 22.128C270.241 22.128 271.553 22.672 272.641 23.76C273.729 24.848 274.273 26.128 274.273 27.6C274.273 29.072 273.729 30.352 272.641 31.44C271.553 32.528 270.241 33.072 268.705 33.072ZM282.429 53.712C282.429 51.472 282.813 49.36 283.581 47.376C284.349 45.328 285.469 43.536 286.941 42C288.413 40.4 290.173 39.152 292.221 38.256C294.333 37.36 296.669 36.912 299.229 36.912V46.512C297.949 46.512 296.765 46.864 295.677 47.568C294.653 48.208 293.821 49.104 293.181 50.256C292.541 51.408 292.221 52.72 292.221 54.192V90H282.429V53.712ZM310.845 54.192C310.845 52.976 310.589 51.792 310.077 50.64C309.565 49.424 308.765 48.432 307.677 47.664C306.589 46.896 305.309 46.512 303.837 46.512V36.912C306.397 36.912 308.701 37.36 310.749 38.256C312.861 39.152 314.653 40.4 316.125 42C317.597 43.6 318.717 45.424 319.485 47.472C320.253 49.456 320.637 51.536 320.637 53.712V90H310.845V54.192ZM357.848 90L341.048 63.408L357.656 37.008H368.984L352.088 63.408L369.08 90H357.848ZM328.28 90V21.84H338.456V90H328.28Z" fill="#3B82F6"/>
<path d="M220.936 90H219.936V91H220.936V90ZM220.936 22.8V21.8H219.936V22.8H220.936ZM231.304 22.8H232.304V21.8H231.304V22.8ZM231.304 79.824H230.304V80.824H231.304V79.824ZM257.032 79.824H258.032V78.824H257.032V79.824ZM257.032 90V91H258.032V90H257.032ZM221.936 90V22.8H219.936V90H221.936ZM220.936 23.8H231.304V21.8H220.936V23.8ZM230.304 22.8V79.824H232.304V22.8H230.304ZM231.304 80.824H257.032V78.824H231.304V80.824ZM256.032 79.824V90H258.032V79.824H256.032ZM257.032 89H220.936V91H257.032V89ZM263.905 90H262.905V91H263.905V90ZM263.905 37.488V36.488H262.905V37.488H263.905ZM273.793 37.488H274.793V36.488H273.793V37.488ZM273.793 90V91H274.793V90H273.793ZM264.769 31.44L264.062 32.1471L264.072 32.1572L264.082 32.167L264.769 31.44ZM264.769 23.76L264.082 23.033L264.072 23.0428L264.062 23.0529L264.769 23.76ZM272.641 23.76L273.348 23.0529L273.348 23.0529L272.641 23.76ZM272.641 31.44L273.348 32.1471L273.348 32.1471L272.641 31.44ZM264.905 90V37.488H262.905V90H264.905ZM263.905 38.488H273.793V36.488H263.905V38.488ZM272.793 37.488V90H274.793V37.488H272.793ZM273.793 89H263.905V91H273.793V89ZM268.705 32.072C267.509 32.072 266.438 31.6404 265.456 30.713L264.082 32.167C265.404 33.4156 266.957 34.072 268.705 34.072V32.072ZM265.476 30.7329C264.566 29.823 264.137 28.7937 264.137 27.6H262.137C262.137 29.3503 262.796 30.881 264.062 32.1471L265.476 30.7329ZM264.137 27.6C264.137 26.4063 264.566 25.377 265.476 24.4671L264.062 23.0529C262.796 24.319 262.137 25.8497 262.137 27.6H264.137ZM265.456 24.487C266.438 23.5596 267.509 23.128 268.705 23.128V21.128C266.957 21.128 265.404 21.7844 264.082 23.033L265.456 24.487ZM268.705 23.128C269.975 23.128 271.033 23.5663 271.934 24.4671L273.348 23.0529C272.073 21.7777 270.507 21.128 268.705 21.128V23.128ZM271.934 24.4671C272.844 25.377 273.273 26.4063 273.273 27.6H275.273C275.273 25.8497 274.614 24.319 273.348 23.0529L271.934 24.4671ZM273.273 27.6C273.273 28.7937 272.844 29.823 271.934 30.7329L273.348 32.1471C274.614 30.881 275.273 29.3503 275.273 27.6H273.273ZM271.934 30.7329C271.033 31.6337 269.975 32.072 268.705 32.072V34.072C270.507 34.072 272.073 33.4223 273.348 32.1471L271.934 30.7329ZM283.581 47.376L284.514 47.737L284.518 47.7271L283.581 47.376ZM286.941 42L287.663 42.6919L287.67 42.6846L287.677 42.6771L286.941 42ZM292.221 38.256L291.831 37.3354L291.82 37.3398L292.221 38.256ZM299.229 36.912H300.229V35.912H299.229V36.912ZM299.229 46.512V47.512H300.229V46.512H299.229ZM295.677 47.568L296.207 48.416L296.214 48.4118L296.221 48.4076L295.677 47.568ZM293.181 50.256L292.307 49.7704L292.307 49.7704L293.181 50.256ZM292.221 90V91H293.221V90H292.221ZM282.429 90H281.429V91H282.429V90ZM310.077 50.64L309.156 51.0281L309.159 51.0371L309.163 51.0461L310.077 50.64ZM307.677 47.664L308.254 46.847L308.254 46.847L307.677 47.664ZM303.837 46.512H302.837V47.512H303.837V46.512ZM303.837 36.912V35.912H302.837V36.912H303.837ZM310.749 38.256L310.348 39.1722L310.359 39.1766L310.749 38.256ZM316.125 42L315.389 42.6771L315.389 42.6771L316.125 42ZM319.485 47.472L318.549 47.8231L318.553 47.833L319.485 47.472ZM320.637 90V91H321.637V90H320.637ZM310.845 90H309.845V91H310.845V90ZM283.429 53.712C283.429 51.5888 283.793 49.5998 284.514 47.737L282.649 47.015C281.834 49.1202 281.429 51.3551 281.429 53.712H283.429ZM284.518 47.7271C285.239 45.8024 286.288 44.1272 287.663 42.6919L286.219 41.3081C284.651 42.9448 283.459 44.8536 282.645 47.0249L284.518 47.7271ZM287.677 42.6771C289.053 41.182 290.697 40.0142 292.622 39.1722L291.82 37.3398C289.649 38.2898 287.774 39.618 286.205 41.3229L287.677 42.6771ZM292.612 39.1766C294.587 38.3387 296.788 37.912 299.229 37.912V35.912C296.551 35.912 294.08 36.3813 291.831 37.3354L292.612 39.1766ZM298.229 36.912V46.512H300.229V36.912H298.229ZM299.229 45.512C297.754 45.512 296.382 45.9211 295.134 46.7284L296.221 48.4076C297.149 47.8069 298.145 47.512 299.229 47.512V45.512ZM295.147 46.72C293.967 47.4578 293.022 48.4843 292.307 49.7704L294.055 50.7416C294.621 49.7237 295.34 48.9582 296.207 48.416L295.147 46.72ZM292.307 49.7704C291.575 51.0877 291.221 52.5703 291.221 54.192H293.221C293.221 52.8697 293.507 51.7283 294.055 50.7416L292.307 49.7704ZM291.221 54.192V90H293.221V54.192H291.221ZM292.221 89H282.429V91H292.221V89ZM283.429 90V53.712H281.429V90H283.429ZM311.845 54.192C311.845 52.8309 311.558 51.5089 310.991 50.2339L309.163 51.0461C309.621 52.0751 309.845 53.1211 309.845 54.192H311.845ZM310.999 50.2519C310.414 48.8618 309.493 47.7218 308.254 46.847L307.101 48.481C308.037 49.1421 308.717 49.9862 309.156 51.0281L310.999 50.2519ZM308.254 46.847C306.98 45.9475 305.493 45.512 303.837 45.512V47.512C305.125 47.512 306.199 47.8445 307.101 48.481L308.254 46.847ZM304.837 46.512V36.912H302.837V46.512H304.837ZM303.837 37.912C306.279 37.912 308.444 38.3389 310.348 39.1722L311.15 37.3398C308.959 36.3811 306.515 35.912 303.837 35.912V37.912ZM310.359 39.1766C312.347 40.0201 314.019 41.1877 315.389 42.6771L316.861 41.3229C315.287 39.6123 313.376 38.2839 311.14 37.3354L310.359 39.1766ZM315.389 42.6771C316.774 44.1817 317.826 45.8949 318.549 47.8231L320.422 47.1209C319.609 44.9531 318.421 43.0183 316.861 41.3229L315.389 42.6771ZM318.553 47.833C319.275 49.6992 319.637 51.6566 319.637 53.712H321.637C321.637 51.4154 321.231 49.2128 320.418 47.111L318.553 47.833ZM319.637 53.712V90H321.637V53.712H319.637ZM320.637 89H310.845V91H320.637V89ZM311.845 90V54.192H309.845V90H311.845ZM357.848 90L357.002 90.5341L357.297 91H357.848V90ZM341.048 63.408L340.201 62.8755L339.866 63.4091L340.202 63.9421L341.048 63.408ZM357.656 37.008V36.008H357.103L356.809 36.4755L357.656 37.008ZM368.984 37.008L369.826 37.547L370.811 36.008H368.984V37.008ZM352.088 63.408L351.245 62.8689L350.901 63.4076L351.245 63.9464L352.088 63.408ZM369.08 90V91H370.905L369.922 89.4616L369.08 90ZM328.28 90H327.28V91H328.28V90ZM328.28 21.84V20.84H327.28V21.84H328.28ZM338.456 21.84H339.456V20.84H338.456V21.84ZM338.456 90V91H339.456V90H338.456ZM358.693 89.4659L341.893 62.8739L340.202 63.9421L357.002 90.5341L358.693 89.4659ZM341.894 63.9405L358.502 37.5405L356.809 36.4755L340.201 62.8755L341.894 63.9405ZM357.656 38.008H368.984V36.008H357.656V38.008ZM368.141 36.4689L351.245 62.8689L352.93 63.9471L369.826 37.547L368.141 36.4689ZM351.245 63.9464L368.237 90.5384L369.922 89.4616L352.93 62.8695L351.245 63.9464ZM369.08 89H357.848V91H369.08V89ZM329.28 90V21.84H327.28V90H329.28ZM328.28 22.84H338.456V20.84H328.28V22.84ZM337.456 21.84V90H339.456V21.84H337.456ZM338.456 89H328.28V91H338.456V89Z" fill="#3B82F6" mask="url(#path-3-outside-2_209_5)"/>
</svg>
