<svg width="84" height="96" viewBox="0 0 84 96" fill="none" xmlns="http://www.w3.org/2000/svg">
<mask id="path-1-outside-1_222_12" maskUnits="userSpaceOnUse" x="44" y="21" width="40" height="70" fill="black">
<rect fill="white" x="44" y="21" width="40" height="70"/>
<path d="M45.936 90V22.8H56.304V79.824H82.032V90H45.936Z"/>
</mask>
<path d="M45.936 90V22.8H56.304V79.824H82.032V90H45.936Z" fill="#3B82F6"/>
<path d="M45.936 90H44.936V91H45.936V90ZM45.936 22.8V21.8H44.936V22.8H45.936ZM56.304 22.8H57.304V21.8H56.304V22.8ZM56.304 79.824H55.304V80.824H56.304V79.824ZM82.032 79.824H83.032V78.824H82.032V79.824ZM82.032 90V91H83.032V90H82.032ZM46.936 90V22.8H44.936V90H46.936ZM45.936 23.8H56.304V21.8H45.936V23.8ZM55.304 22.8V79.824H57.304V22.8H55.304ZM56.304 80.824H82.032V78.824H56.304V80.824ZM81.032 79.824V90H83.032V79.824H81.032ZM82.032 89H45.936V91H82.032V89Z" fill="#3B82F6" mask="url(#path-1-outside-1_222_12)"/>
<mask id="path-3-outside-2_222_12" maskUnits="userSpaceOnUse" x="0" y="21" width="45" height="70" fill="black">
<rect fill="white" y="21" width="45" height="70"/>
<path d="M17.184 90V32.88H1.632V22.8H43.2V32.88H27.552V90H17.184Z"/>
</mask>
<path d="M17.184 90V32.88H1.632V22.8H43.2V32.88H27.552V90H17.184Z" fill="black"/>
<path d="M17.184 90H16.184V91H17.184V90ZM17.184 32.88H18.184V31.88H17.184V32.88ZM1.632 32.88H0.632V33.88H1.632V32.88ZM1.632 22.8V21.8H0.632V22.8H1.632ZM43.2 22.8H44.2V21.8H43.2V22.8ZM43.2 32.88V33.88H44.2V32.88H43.2ZM27.552 32.88V31.88H26.552V32.88H27.552ZM27.552 90V91H28.552V90H27.552ZM18.184 90V32.88H16.184V90H18.184ZM17.184 31.88H1.632V33.88H17.184V31.88ZM2.632 32.88V22.8H0.632V32.88H2.632ZM1.632 23.8H43.2V21.8H1.632V23.8ZM42.2 22.8V32.88H44.2V22.8H42.2ZM43.2 31.88H27.552V33.88H43.2V31.88ZM26.552 32.88V90H28.552V32.88H26.552ZM27.552 89H17.184V91H27.552V89Z" fill="black" mask="url(#path-3-outside-2_222_12)"/>
</svg>
